{"accessors":[{"bufferView":0,"componentType":5125,"count":204966,"max":[34300.0],"min":[0.0],"type":"SCALAR"},{"bufferView":1,"componentType":5126,"count":34301,"max":[64.6911468505859,136.795623779297,44.9954223632813],"min":[0.0222350675612688,6.0,9.35591524466872e-05],"type":"VEC3"},{"bufferView":2,"componentType":5126,"count":34301,"max":[1.0,1.0,1.0],"min":[0.0,0.0,0.0],"type":"VEC3"},{"bufferView":3,"componentType":5126,"count":34301,"max":[0.0,0.0],"min":[0.0,0.0],"type":"VEC2"}],"asset":{"generator":"BIM+","version":"2.0"},"bufferViews":[{"buffer":0,"byteLength":819864,"byteOffset":0,"target":34963},{"buffer":0,"byteLength":411612,"byteOffset":819864,"byteStride":12,"target":34962},{"buffer":0,"byteLength":411624,"byteOffset":1231476,"byteStride":12,"target":34962},{"buffer":0,"byteLength":274416,"byteOffset":1643100,"byteStride":8,"target":34962},{"buffer":0,"byteLength":612,"byteOffset":1917516}],"buffers":[{"byteLength":1918128,"type":"arraybuffer","uri":"data:application/octet-stream;base64,"}],"images":[{"bufferView":4,"mimeType":"image/jpeg"}],"materials":[{"alphaMode":"OPAQUE","doubleSided":true,"emissiveFactor":[0.0,0.0,0.0],"name":"default","pbrMetallicRoughness":{"baseColorFactor":[1.0,1.0,1.0,1.0],"baseColorTexture":{"index":0},"metallicFactor":0,"roughnessFactor":1}}],"meshes":[{"primitives":[{"attributes":{"COLOR_0":2,"POSITION":1,"TEXCOORD_0":3},"indices":0,"material":0,"mode":4}]}],"nodes":[{"mesh":0,"name":"0"}],"samplers":[{"magFilter":9729,"minFilter":9986,"wrapS":10497,"wrapT":10497}],"scene":0,"scenes":[{"nodes":[0]}],"textures":[{"sampler":0,"source":0}]}
