{"accessors":[{"bufferView":0,"componentType":5125,"count":115716,"max":[19825.0],"min":[0.0],"type":"SCALAR"},{"bufferView":1,"componentType":5126,"count":19826,"max":[215.909698486328,39.4107627868652,140.217620849609],"min":[0.0688896477222443,6.0,9.14317424758337e-05],"type":"VEC3"},{"bufferView":2,"componentType":5126,"count":19826,"max":[1.0,1.0,1.0],"min":[0.0,0.0,0.0],"type":"VEC3"},{"bufferView":3,"componentType":5126,"count":19826,"max":[0.0,0.0],"min":[0.0,0.0],"type":"VEC2"}],"asset":{"generator":"BIM+","version":"2.0"},"bufferViews":[{"buffer":0,"byteLength":462864,"byteOffset":0,"target":34963},{"buffer":0,"byteLength":237912,"byteOffset":462864,"byteStride":12,"target":34962},{"buffer":0,"byteLength":237924,"byteOffset":700776,"byteStride":12,"target":34962},{"buffer":0,"byteLength":158616,"byteOffset":938700,"byteStride":8,"target":34962},{"buffer":0,"byteLength":612,"byteOffset":1097316}],"buffers":[{"byteLength":1097928,"type":"arraybuffer","uri":"data:application/octet-stream;base64,"}],"images":[{"bufferView":4,"mimeType":"image/jpeg"}],"materials":[{"alphaMode":"OPAQUE","doubleSided":true,"emissiveFactor":[0.0,0.0,0.0],"name":"default","pbrMetallicRoughness":{"baseColorFactor":[1.0,1.0,1.0,1.0],"baseColorTexture":{"index":0},"metallicFactor":0,"roughnessFactor":1}}],"meshes":[{"primitives":[{"attributes":{"COLOR_0":2,"POSITION":1,"TEXCOORD_0":3},"indices":0,"material":0,"mode":4}]}],"nodes":[{"mesh":0,"name":"0"}],"samplers":[{"magFilter":9729,"minFilter":9986,"wrapS":10497,"wrapT":10497}],"scene":0,"scenes":[{"nodes":[0]}],"textures":[{"sampler":0,"source":0}]}
