{"accessors":[{"bufferView":0,"componentType":5125,"count":192885,"max":[32297.0],"min":[0.0],"type":"SCALAR"},{"bufferView":1,"componentType":5126,"count":32298,"max":[72.2988586425781,109.01383972168,67.6625747680664],"min":[0.0851107090711594,6.0,0.000133020934299566],"type":"VEC3"},{"bufferView":2,"componentType":5126,"count":32298,"max":[1.0,1.0,1.0],"min":[0.0,0.0,0.0],"type":"VEC3"},{"bufferView":3,"componentType":5126,"count":32298,"max":[0.0,0.0],"min":[0.0,0.0],"type":"VEC2"}],"asset":{"generator":"BIM+","version":"2.0"},"bufferViews":[{"buffer":0,"byteLength":771540,"byteOffset":0,"target":34963},{"buffer":0,"byteLength":387576,"byteOffset":771540,"byteStride":12,"target":34962},{"buffer":0,"byteLength":387588,"byteOffset":1159116,"byteStride":12,"target":34962},{"buffer":0,"byteLength":258392,"byteOffset":1546704,"byteStride":8,"target":34962},{"buffer":0,"byteLength":612,"byteOffset":1805096}],"buffers":[{"byteLength":1805708,"type":"arraybuffer","uri":"data:application/octet-stream;base64,"}],"images":[{"bufferView":4,"mimeType":"image/jpeg"}],"materials":[{"alphaMode":"OPAQUE","doubleSided":true,"emissiveFactor":[0.0,0.0,0.0],"name":"default","pbrMetallicRoughness":{"baseColorFactor":[1.0,1.0,1.0,1.0],"baseColorTexture":{"index":0},"metallicFactor":0,"roughnessFactor":1}}],"meshes":[{"primitives":[{"attributes":{"COLOR_0":2,"POSITION":1,"TEXCOORD_0":3},"indices":0,"material":0,"mode":4}]}],"nodes":[{"mesh":0,"name":"0"}],"samplers":[{"magFilter":9729,"minFilter":9986,"wrapS":10497,"wrapT":10497}],"scene":0,"scenes":[{"nodes":[0]}],"textures":[{"sampler":0,"source":0}]}
