{"accessors":[{"bufferView":0,"componentType":5125,"count":208245,"max":[34960.0],"min":[0.0],"type":"SCALAR"},{"bufferView":1,"componentType":5126,"count":34961,"max":[123.66658782959,124.229888916016,82.7609100341797],"min":[0.129613876342773,6.0,0.000154739318531938],"type":"VEC3"},{"bufferView":2,"componentType":5126,"count":34961,"max":[1.0,1.0,1.0],"min":[0.0,0.0,0.0],"type":"VEC3"},{"bufferView":3,"componentType":5126,"count":34961,"max":[0.0,0.0],"min":[0.0,0.0],"type":"VEC2"}],"asset":{"generator":"BIM+","version":"2.0"},"bufferViews":[{"buffer":0,"byteLength":832980,"byteOffset":0,"target":34963},{"buffer":0,"byteLength":419532,"byteOffset":832980,"byteStride":12,"target":34962},{"buffer":0,"byteLength":419544,"byteOffset":1252512,"byteStride":12,"target":34962},{"buffer":0,"byteLength":279696,"byteOffset":1672056,"byteStride":8,"target":34962},{"buffer":0,"byteLength":612,"byteOffset":1951752}],"buffers":[{"byteLength":1952364,"type":"arraybuffer","uri":"data:application/octet-stream;base64,"}],"images":[{"bufferView":4,"mimeType":"image/jpeg"}],"materials":[{"alphaMode":"OPAQUE","doubleSided":true,"emissiveFactor":[0.0,0.0,0.0],"name":"default","pbrMetallicRoughness":{"baseColorFactor":[1.0,1.0,1.0,1.0],"baseColorTexture":{"index":0},"metallicFactor":0,"roughnessFactor":1}}],"meshes":[{"primitives":[{"attributes":{"COLOR_0":2,"POSITION":1,"TEXCOORD_0":3},"indices":0,"material":0,"mode":4}]}],"nodes":[{"mesh":0,"name":"0"}],"samplers":[{"magFilter":9729,"minFilter":9986,"wrapS":10497,"wrapT":10497}],"scene":0,"scenes":[{"nodes":[0]}],"textures":[{"sampler":0,"source":0}]}
