{"accessors":[{"bufferView":0,"componentType":5125,"count":96513,"max":[16518.0],"min":[0.0],"type":"SCALAR"},{"bufferView":1,"componentType":5126,"count":16519,"max":[354.840576171875,31.8350563049316,321.244415283203],"min":[0.114506743848324,6.0,0.000571219541598111],"type":"VEC3"},{"bufferView":2,"componentType":5126,"count":16519,"max":[1.0,1.0,1.0],"min":[0.0,0.0,0.0],"type":"VEC3"},{"bufferView":3,"componentType":5126,"count":16519,"max":[0.0,0.0],"min":[0.0,0.0],"type":"VEC2"}],"asset":{"generator":"BIM+","version":"2.0"},"bufferViews":[{"buffer":0,"byteLength":386052,"byteOffset":0,"target":34963},{"buffer":0,"byteLength":198228,"byteOffset":386052,"byteStride":12,"target":34962},{"buffer":0,"byteLength":198240,"byteOffset":584280,"byteStride":12,"target":34962},{"buffer":0,"byteLength":132160,"byteOffset":782520,"byteStride":8,"target":34962},{"buffer":0,"byteLength":612,"byteOffset":914680}],"buffers":[{"byteLength":915292,"type":"arraybuffer","uri":"data:application/octet-stream;base64,"}],"images":[{"bufferView":4,"mimeType":"image/jpeg"}],"materials":[{"alphaMode":"OPAQUE","doubleSided":true,"emissiveFactor":[0.0,0.0,0.0],"name":"default","pbrMetallicRoughness":{"baseColorFactor":[1.0,1.0,1.0,1.0],"baseColorTexture":{"index":0},"metallicFactor":0,"roughnessFactor":1}}],"meshes":[{"primitives":[{"attributes":{"COLOR_0":2,"POSITION":1,"TEXCOORD_0":3},"indices":0,"material":0,"mode":4}]}],"nodes":[{"mesh":0,"name":"0"}],"samplers":[{"magFilter":9729,"minFilter":9986,"wrapS":10497,"wrapT":10497}],"scene":0,"scenes":[{"nodes":[0]}],"textures":[{"sampler":0,"source":0}]}
