{"accessors":[{"bufferView":0,"componentType":5123,"count":276,"max":[275.0],"min":[0.0],"type":"SCALAR"},{"bufferView":0,"byteOffset":552,"componentType":5123,"count":222,"max":[221.0],"min":[0.0],"type":"SCALAR"},{"bufferView":0,"byteOffset":996,"componentType":5123,"count":33675,"max":[33674.0],"min":[0.0],"type":"SCALAR"},{"bufferView":0,"byteOffset":68346,"componentType":5123,"count":192,"max":[191.0],"min":[0.0],"type":"SCALAR"},{"bufferView":0,"byteOffset":68730,"componentType":5123,"count":462,"max":[461.0],"min":[0.0],"type":"SCALAR"},{"bufferView":0,"byteOffset":69654,"componentType":5123,"count":7164,"max":[7163.0],"min":[0.0],"type":"SCALAR"},{"bufferView":0,"byteOffset":83982,"componentType":5123,"count":66,"max":[65.0],"min":[0.0],"type":"SCALAR"},{"bufferView":0,"byteOffset":84114,"componentType":5123,"count":642,"max":[641.0],"min":[0.0],"type":"SCALAR"},{"bufferView":0,"byteOffset":85398,"componentType":5123,"count":759,"max":[758.0],"min":[0.0],"type":"SCALAR"},{"bufferView":0,"byteOffset":86916,"componentType":5123,"count":23004,"max":[23003.0],"min":[0.0],"type":"SCALAR"},{"bufferView":0,"byteOffset":132924,"componentType":5123,"count":204,"max":[203.0],"min":[0.0],"type":"SCALAR"},{"bufferView":0,"byteOffset":133332,"componentType":5123,"count":516,"max":[515.0],"min":[0.0],"type":"SCALAR"},{"bufferView":0,"byteOffset":134364,"componentType":5123,"count":1722,"max":[1721.0],"min":[0.0],"type":"SCALAR"},{"bufferView":1,"componentType":5126,"count":276,"max":[324.048797607422,143.5,135.69970703125],"min":[1.13767540454865,10.5,15.702410697937],"type":"VEC3"},{"bufferView":1,"byteOffset":3312,"componentType":5126,"count":222,"max":[326.833892822266,142.300003051758,153.470565795898],"min":[1.43326675891876,15.5,14.8724222183228],"type":"VEC3"},{"bufferView":1,"byteOffset":5976,"componentType":5126,"count":33675,"max":[327.317535400391,160.5,139.806884765625],"min":[0.0,10.5,13.1537466049194],"type":"VEC3"},{"bufferView":1,"byteOffset":410076,"componentType":5126,"count":192,"max":[326.397888183594,160.0,137.258209228516],"min":[1.05227160453796,10.5,15.702410697937],"type":"VEC3"},{"bufferView":1,"byteOffset":412380,"componentType":5126,"count":462,"max":[303.243225097656,124.699996948242,133.736892700195],"min":[21.5962982177734,10.5,14.5992879867554],"type":"VEC3"},{"bufferView":1,"byteOffset":417924,"componentType":5126,"count":7164,"max":[325.81982421875,159.100006103516,136.680160522461],"min":[1.43326675891876,10.5,16.2463054656982],"type":"VEC3"},{"bufferView":1,"byteOffset":503892,"componentType":5126,"count":66,"max":[248.266372680664,36.2000007629395,126.77326965332],"min":[14.3640470504761,5.5,23.2530097961426],"type":"VEC3"},{"bufferView":1,"byteOffset":504684,"componentType":5126,"count":642,"max":[328.673248291016,36.5,151.055191040039],"min":[26.7798538208008,10.5,17.5690879821777],"type":"VEC3"},{"bufferView":1,"byteOffset":512388,"componentType":5126,"count":759,"max":[328.673248291016,150.0,154.626678466797],"min":[1.05227160453796,10.5,13.7163105010986],"type":"VEC3"},{"bufferView":1,"byteOffset":521496,"componentType":5126,"count":23004,"max":[326.406402587891,143.199996948242,137.307479858398],"min":[20.7498188018799,10.5697965621948,19.0692958831787],"type":"VEC3"},{"bufferView":1,"byteOffset":797544,"componentType":5126,"count":204,"max":[313.444213867188,155.5,125.933540344238],"min":[14.0059442520142,0.0,13.7163105010986],"type":"VEC3"},{"bufferView":1,"byteOffset":799992,"componentType":5126,"count":516,"max":[79.7920455932617,24.7000007629395,86.5938568115234],"min":[7.91873455047607,10.5,0.0],"type":"VEC3"},{"bufferView":1,"byteOffset":806184,"componentType":5126,"count":1722,"max":[276.271423339844,25.0,150.242385864258],"min":[120.695854187012,10.6999998092651,40.6589469909668],"type":"VEC3"},{"bufferView":2,"componentType":5126,"count":276,"max":[1991.66284179688,70.4766082763672],"min":[-1991.66284179688,-1990.66284179688],"type":"VEC2"},{"bufferView":2,"byteOffset":2208,"componentType":5126,"count":222,"max":[1939.94763183594,1312.24768066406],"min":[-1939.94763183594,-2829.90747070313],"type":"VEC2"},{"bufferView":2,"byteOffset":3984,"componentType":5126,"count":33675,"max":[2061.15380859375,1418.32287597656],"min":[-2061.15380859375,-5830.07470703125],"type":"VEC2"},{"bufferView":2,"byteOffset":273384,"componentType":5126,"count":192,"max":[1866.14172363281,1.93205678462982],"min":[-1866.14172363281,-1865.14172363281],"type":"VEC2"},{"bufferView":2,"byteOffset":274920,"componentType":5126,"count":462,"max":[2938.06591796875,814.296020507813],"min":[-2938.06591796875,-2530.8134765625],"type":"VEC2"},{"bufferView":2,"byteOffset":278616,"componentType":5126,"count":7164,"max":[2141.90112304688,70.4766082763672],"min":[-2133.7509765625,-2132.85815429688],"type":"VEC2"},{"bufferView":2,"byteOffset":335928,"componentType":5126,"count":66,"max":[164.0419921875,2.86411356925964],"min":[-164.0419921875,-163.0419921875],"type":"VEC2"},{"bufferView":2,"byteOffset":336456,"componentType":5126,"count":642,"max":[3138.9658203125,1426.09692382813],"min":[-3138.9658203125,-3137.9658203125],"type":"VEC2"},{"bufferView":2,"byteOffset":341592,"componentType":5126,"count":759,"max":[2364.92260742188,29.5580024719238],"min":[-2364.92260742188,-1399.20788574219],"type":"VEC2"},{"bufferView":2,"byteOffset":347664,"componentType":5126,"count":23004,"max":[826.771667480469,1.0],"min":[-826.771667480469,-38.3700790405273],"type":"VEC2"},{"bufferView":2,"byteOffset":531696,"componentType":5126,"count":204,"max":[5550.63916015625,26.6561679840088],"min":[-5550.63916015625,-4374.80615234375],"type":"VEC2"},{"bufferView":2,"byteOffset":533328,"componentType":5126,"count":516,"max":[816.401916503906,50.2125968933105],"min":[-816.401916503906,-815.401916503906],"type":"VEC2"},{"bufferView":2,"byteOffset":537456,"componentType":5126,"count":1722,"max":[743.507019042969,744.507019042969],"min":[-1364.55383300781,-1363.55383300781],"type":"VEC2"}],"asset":{"generator":"BIM+","version":"2.0"},"bufferViews":[{"buffer":0,"byteLength":137808,"byteOffset":0,"target":34963},{"buffer":0,"byteLength":826848,"byteOffset":137808,"byteStride":12,"target":34962},{"buffer":0,"byteLength":551232,"byteOffset":964656,"byteStride":8,"target":34962},{"buffer":0,"byteLength":41535,"byteOffset":1515888},{"buffer":0,"byteLength":612,"byteOffset":1557424},{"buffer":0,"byteLength":612,"byteOffset":1558036},{"buffer":0,"byteLength":11060,"byteOffset":1558648},{"buffer":0,"byteLength":12285,"byteOffset":1569708},{"buffer":0,"byteLength":612,"byteOffset":1581996},{"buffer":0,"byteLength":40500,"byteOffset":1582608},{"buffer":0,"byteLength":612,"byteOffset":1623108},{"buffer":0,"byteLength":33396,"byteOffset":1623720},{"buffer":0,"byteLength":612,"byteOffset":1657116},{"buffer":0,"byteLength":22524,"byteOffset":1657728},{"buffer":0,"byteLength":612,"byteOffset":1680252},{"buffer":0,"byteLength":612,"byteOffset":1680864}],"buffers":[{"byteLength":1681476,"type":"arraybuffer","uri":"data:application/octet-stream;base64,"}],"images":[{"bufferView":3,"mimeType":"image/jpeg"},{"bufferView":4,"mimeType":"image/jpeg"},{"bufferView":5,"mimeType":"image/jpeg"},{"bufferView":6,"mimeType":"image/jpeg"},{"bufferView":7,"mimeType":"image/jpeg"},{"bufferView":8,"mimeType":"image/jpeg"},{"bufferView":9,"mimeType":"image/jpeg"},{"bufferView":10,"mimeType":"image/jpeg"},{"bufferView":11,"mimeType":"image/jpeg"},{"bufferView":12,"mimeType":"image/jpeg"},{"bufferView":13,"mimeType":"image/jpeg"},{"bufferView":14,"mimeType":"image/jpeg"},{"bufferView":15,"mimeType":"image/jpeg"}],"materials":[{"alphaMode":"OPAQUE","doubleSided":true,"emissiveFactor":[0.0,0.0,0.0],"name":"default","pbrMetallicRoughness":{"baseColorFactor":[0.47843137254902,0.486274509803922,0.466666666666667,1.0],"baseColorTexture":{"index":0},"metallicFactor":0,"roughnessFactor":1}},{"alphaMode":"OPAQUE","doubleSided":true,"emissiveFactor":[0.0,0.0,0.0],"name":"default","pbrMetallicRoughness":{"baseColorFactor":[0.294117647058824,0.6,0.0,1.0],"baseColorTexture":{"index":1},"metallicFactor":0,"roughnessFactor":1}},{"alphaMode":"OPAQUE","doubleSided":true,"emissiveFactor":[0.0,0.0,0.0],"name":"default","pbrMetallicRoughness":{"baseColorFactor":[0.909803921568627,0.909803921568627,0.909803921568627,1.0],"baseColorTexture":{"index":2},"metallicFactor":0,"roughnessFactor":1}},{"alphaMode":"OPAQUE","doubleSided":true,"emissiveFactor":[0.0,0.0,0.0],"name":"default","pbrMetallicRoughness":{"baseColorFactor":[0.827450980392157,0.976470588235294,0.980392156862745,1.0],"baseColorTexture":{"index":3},"metallicFactor":0,"roughnessFactor":1}},{"alphaMode":"OPAQUE","doubleSided":true,"emissiveFactor":[0.0,0.0,0.0],"name":"default","pbrMetallicRoughness":{"baseColorFactor":[0.549019607843137,0.619607843137255,0.564705882352941,1.0],"baseColorTexture":{"index":4},"metallicFactor":0,"roughnessFactor":1}},{"alphaMode":"OPAQUE","doubleSided":true,"emissiveFactor":[0.0,0.0,0.0],"name":"default","pbrMetallicRoughness":{"baseColorFactor":[1.0,1.0,1.0,1.0],"baseColorTexture":{"index":5},"metallicFactor":0,"roughnessFactor":1}},{"alphaMode":"OPAQUE","doubleSided":true,"emissiveFactor":[0.0,0.0,0.0],"name":"default","pbrMetallicRoughness":{"baseColorFactor":[0.717647058823529,0.717647058823529,0.717647058823529,1.0],"baseColorTexture":{"index":6},"metallicFactor":0,"roughnessFactor":1}},{"alphaMode":"OPAQUE","doubleSided":true,"emissiveFactor":[0.0,0.0,0.0],"name":"default","pbrMetallicRoughness":{"baseColorFactor":[0.92156862745098,1.0,0.83921568627451,1.0],"baseColorTexture":{"index":7},"metallicFactor":0,"roughnessFactor":1}},{"alphaMode":"OPAQUE","doubleSided":true,"emissiveFactor":[0.0,0.0,0.0],"name":"default","pbrMetallicRoughness":{"baseColorFactor":[0.874509803921569,0.874509803921569,0.874509803921569,1.0],"baseColorTexture":{"index":8},"metallicFactor":0,"roughnessFactor":1}},{"alphaMode":"OPAQUE","doubleSided":true,"emissiveFactor":[0.0,0.0,0.0],"name":"default","pbrMetallicRoughness":{"baseColorFactor":[0.23921568627451,0.4,0.4,1.0],"baseColorTexture":{"index":9},"metallicFactor":0,"roughnessFactor":1}},{"alphaMode":"OPAQUE","doubleSided":true,"emissiveFactor":[0.0,0.0,0.0],"name":"default","pbrMetallicRoughness":{"baseColorFactor":[0.8,0.92156862745098,0.956862745098039,1.0],"baseColorTexture":{"index":10},"metallicFactor":0,"roughnessFactor":1}},{"alphaMode":"OPAQUE","doubleSided":true,"emissiveFactor":[0.0,0.0,0.0],"name":"default","pbrMetallicRoughness":{"baseColorFactor":[0.556862745098039,0.556862745098039,0.556862745098039,1.0],"baseColorTexture":{"index":11},"metallicFactor":0,"roughnessFactor":1}},{"alphaMode":"OPAQUE","doubleSided":true,"emissiveFactor":[0.0,0.0,0.0],"name":"default","pbrMetallicRoughness":{"baseColorFactor":[0.227450980392157,0.227450980392157,0.227450980392157,1.0],"baseColorTexture":{"index":12},"metallicFactor":0,"roughnessFactor":1}}],"meshes":[{"primitives":[{"attributes":{"POSITION":13,"TEXCOORD_0":26},"indices":0,"material":0,"mode":4}]},{"primitives":[{"attributes":{"POSITION":14,"TEXCOORD_0":27},"indices":1,"material":1,"mode":4}]},{"primitives":[{"attributes":{"POSITION":15,"TEXCOORD_0":28},"indices":2,"material":2,"mode":4}]},{"primitives":[{"attributes":{"POSITION":16,"TEXCOORD_0":29},"indices":3,"material":3,"mode":4}]},{"primitives":[{"attributes":{"POSITION":17,"TEXCOORD_0":30},"indices":4,"material":4,"mode":4}]},{"primitives":[{"attributes":{"POSITION":18,"TEXCOORD_0":31},"indices":5,"material":5,"mode":4}]},{"primitives":[{"attributes":{"POSITION":19,"TEXCOORD_0":32},"indices":6,"material":6,"mode":4}]},{"primitives":[{"attributes":{"POSITION":20,"TEXCOORD_0":33},"indices":7,"material":7,"mode":4}]},{"primitives":[{"attributes":{"POSITION":21,"TEXCOORD_0":34},"indices":8,"material":8,"mode":4}]},{"primitives":[{"attributes":{"POSITION":22,"TEXCOORD_0":35},"indices":9,"material":9,"mode":4}]},{"primitives":[{"attributes":{"POSITION":23,"TEXCOORD_0":36},"indices":10,"material":10,"mode":4}]},{"primitives":[{"attributes":{"POSITION":24,"TEXCOORD_0":37},"indices":11,"material":11,"mode":4}]},{"primitives":[{"attributes":{"POSITION":25,"TEXCOORD_0":38},"indices":12,"material":12,"mode":4}]}],"nodes":[{"mesh":0,"name":"0"},{"mesh":1,"name":"1"},{"mesh":2,"name":"2"},{"mesh":3,"name":"3"},{"mesh":4,"name":"4"},{"mesh":5,"name":"5"},{"mesh":6,"name":"6"},{"mesh":7,"name":"7"},{"mesh":8,"name":"8"},{"mesh":9,"name":"9"},{"mesh":10,"name":"10"},{"mesh":11,"name":"11"},{"mesh":12,"name":"12"}],"samplers":[{"magFilter":9729,"minFilter":9729,"wrapS":10497,"wrapT":10497}],"scene":0,"scenes":[{"nodes":[0,1,2,3,4,5,6,7,8,9,10,11,12]}],"textures":[{"sampler":0,"source":0},{"sampler":0,"source":1},{"sampler":0,"source":2},{"sampler":0,"source":3},{"sampler":0,"source":4},{"sampler":0,"source":5},{"sampler":0,"source":6},{"sampler":0,"source":7},{"sampler":0,"source":8},{"sampler":0,"source":9},{"sampler":0,"source":10},{"sampler":0,"source":11},{"sampler":0,"source":12}]}
